ply
format ascii 1.0
comment Created by Blender 2.81 (sub 15) - www.blender.org, source file: ''
element vertex 16
property float x
property float y
property float z
property float nx
property float ny
property float nz
property float s
property float t
element face 5
property list uchar uint vertex_indices
end_header
1.000000 -1.000000 -1.000000 0.000000 -0.894427 0.447214 0.375000 0.750000
0.000000 0.000000 1.000000 0.000000 -0.894427 0.447214 0.625000 1.000000
-1.000000 -1.000000 -1.000000 0.000000 -0.894427 0.447214 0.375000 1.000000
-1.000000 -1.000000 -1.000000 -0.894427 0.000000 0.447214 0.375000 0.000000
0.000000 0.000000 1.000000 -0.894427 0.000000 0.447214 0.625000 0.250000
-1.000000 1.000000 -1.000000 -0.894427 0.000000 0.447214 0.375000 0.250000
-1.000000 1.000000 -1.000000 0.000000 0.000000 -1.000000 0.125000 0.500000
1.000000 1.000000 -1.000000 0.000000 0.000000 -1.000000 0.375000 0.500000
1.000000 -1.000000 -1.000000 0.000000 0.000000 -1.000000 0.375000 0.750000
-1.000000 -1.000000 -1.000000 0.000000 0.000000 -1.000000 0.125000 0.750000
1.000000 1.000000 -1.000000 0.894427 0.000000 0.447214 0.375000 0.500000
0.000000 0.000000 1.000000 0.894427 0.000000 0.447214 0.625000 0.750000
1.000000 -1.000000 -1.000000 0.894427 0.000000 0.447214 0.375000 0.750000
-1.000000 1.000000 -1.000000 0.000000 0.894427 0.447214 0.375000 0.250000
0.000000 0.000000 1.000000 0.000000 0.894427 0.447214 0.625000 0.500000
1.000000 1.000000 -1.000000 0.000000 0.894427 0.447214 0.375000 0.500000
3 0 1 2
3 3 4 5
4 6 7 8 9
3 10 11 12
3 13 14 15
